<?xml version="1.0"?>
<svg xmlns="http://www.w3.org/2000/svg" xmlns:xlink="http://www.w3.org/1999/xlink" version="1.1" id="Capa_1" x="0px" y="0px" viewBox="0 0 512 512" style="enable-background:new 0 0 512 512;" xml:space="preserve" width="512px" height="512px" class=""><g><g>
	<g>
		<path d="M170.93,153.814l-7.432-1.507c-15.76-3.196-28.01-15.444-31.206-31.206l-1.507-7.432    c-1.605-7.918-8.368-13.449-16.449-13.449c-8.078,0-14.844,5.531-16.449,13.448l-1.507,7.432    c-3.195,15.761-15.444,28.01-31.206,31.206l-7.432,1.507c-7.919,1.606-13.449,8.369-13.449,16.45c0,8.08,5.53,14.844,13.448,16.45    l7.432,1.507c15.761,3.196,28.01,15.444,31.206,31.206l1.507,7.432c1.606,7.919,8.369,13.449,16.45,13.449    c8.079,0,14.843-5.531,16.449-13.449l1.507-7.432c3.196-15.761,15.444-28.01,31.206-31.206l7.432-1.507    c7.918-1.605,13.449-8.368,13.449-16.449C184.379,162.185,178.849,155.42,170.93,153.814z M167.908,171.806l-7.432,1.507    c-21.763,4.412-38.676,21.326-43.089,43.089l-1.507,7.432c-0.083,0.41-0.255,1.262-1.543,1.262c-1.289,0-1.461-0.853-1.544-1.262    l-1.507-7.432c-4.412-21.763-21.326-38.676-43.088-43.089l-7.433-1.507c-0.41-0.083-1.262-0.255-1.262-1.543    c-0.001-1.288,0.852-1.46,1.262-1.544l7.432-1.507c21.764-4.412,38.677-21.326,43.089-43.089l1.507-7.432    c0.083-0.41,0.255-1.263,1.544-1.262c1.288,0,1.46,0.853,1.543,1.262l1.507,7.432c4.412,21.764,21.326,38.677,43.089,43.089    l7.432,1.507c0.41,0.083,1.262,0.255,1.262,1.544C169.17,171.551,168.317,171.723,167.908,171.806z" data-original="#000000" class="active-path" data-old_color="#000000" fill="#FFFFFF"/>
	</g>
</g><g>
	<g>
		<path d="M425.694,446.538c-1.361-3.972-5.686-6.09-9.658-4.728C371.724,456.998,314.889,465.363,256,465.363    c-65.413,0-126.797-10.04-172.843-28.271c-43.182-17.097-67.949-39.866-67.949-62.47c0-28.363,39.245-56.645,102.418-73.813    c4.052-1.101,6.445-5.279,5.344-9.332c-1.1-4.052-5.277-6.445-9.332-5.344c-33.514,9.108-61.52,21.487-80.988,35.799    C11.29,337.636,0,355.856,0,374.622c0,29.601,27.544,56.808,77.558,76.609c47.786,18.921,111.158,29.339,178.442,29.339    c60.523,0,119.109-8.656,164.966-24.374C424.94,454.835,427.056,450.511,425.694,446.538z" data-original="#000000" class="active-path" data-old_color="#000000" fill="#FFFFFF"/>
	</g>
</g><g>
	<g>
		<path d="M438.955,299.845c-3.877-1.615-8.328,0.219-9.943,4.097c-1.614,3.877,0.22,8.328,4.097,9.943    c40.471,16.851,63.683,38.989,63.683,60.737c0,19.761-18.704,39.586-52.665,55.823c-3.788,1.812-5.391,6.352-3.58,10.14    c1.306,2.73,4.029,4.326,6.865,4.326c1.1,0,2.217-0.239,3.275-0.745C490.798,424.989,512,400.941,512,374.622    C512,346.015,486.059,319.458,438.955,299.845z" data-original="#000000" class="active-path" data-old_color="#000000" fill="#FFFFFF"/>
	</g>
</g><g>
	<g>
		<path d="M393.776,373.138l-15.75-79.08c-0.331-1.66-1.204-3.161-2.485-4.267l-56.411-48.764l2.473-11.541l8.751-40.834    c0.341-1.594,0.161-3.256-0.513-4.74l-19.041-41.892l33.526-100.581c1.056-3.168-0.079-6.656-2.798-8.596    c-2.72-1.94-6.386-1.879-9.039,0.153l-129.774,99.358c-1.88,1.439-2.982,3.671-2.982,6.038v59.71l-64.687,64.687    c-1.91,1.908-2.663,4.685-1.982,7.296l11.49,44.043l-8.73,19.409c-1.723,3.829-0.015,8.331,3.815,10.054    c3.829,1.722,8.331,0.015,10.054-3.815l9.83-21.854c0.712-1.583,0.861-3.36,0.423-5.039l-11.067-42.422l43.198-43.198    c0.002-0.002,0.003-0.003,0.005-0.005l41.82-41.82c2.97-2.97,2.97-7.784,0-10.753c-2.97-2.97-7.784-2.97-10.753,0l-8.208,8.207    v-40.747l107.124-82.015l-26.637,79.911c-0.607,1.821-0.503,3.804,0.291,5.551l19.239,42.325l-4.899,22.861    c-0.001,0.005-0.003,0.01-0.004,0.015l-11.327,52.862c-0.879,4.106,1.737,8.148,5.843,9.028c0.536,0.116,1.073,0.17,1.601,0.17    c3.508,0,6.662-2.443,7.428-6.012l1.898-8.857l48.126,41.602l15.077,75.699c-1.056,20.634-51.148,43.327-122.7,43.327    c-70.641,0-120.367-22.121-122.635-42.541l5.376-11.949c1.723-3.83,0.015-8.331-3.815-10.054    c-3.83-1.723-8.331-0.015-10.054,3.815l-6.126,13.618c-0.441,0.981-0.669,2.044-0.669,3.12c0,17.114,15.262,32.581,42.975,43.553    c25.483,10.09,59.204,15.646,94.949,15.646c35.745,0,69.466-5.556,94.949-15.646c27.713-10.972,42.976-26.439,42.976-43.553    C393.923,374.124,393.873,373.627,393.776,373.138z" data-original="#000000" class="active-path" data-old_color="#000000" fill="#FFFFFF"/>
	</g>
</g><g>
	<g>
		<path d="M454.22,230.912l-6.205-1.258c-12.664-2.567-22.507-12.41-25.075-25.075l-1.258-6.205    c-1.46-7.203-7.614-12.235-14.965-12.235c-7.351,0-13.504,5.031-14.965,12.234l-1.258,6.207    c-2.567,12.664-12.409,22.507-25.074,25.074l-6.206,1.258c-7.203,1.461-12.234,7.614-12.234,14.965    c0,7.351,5.031,13.503,12.234,14.964l6.206,1.258c12.665,2.568,22.507,12.411,25.074,25.076l1.258,6.205    c1.46,7.203,7.614,12.235,14.965,12.235c7.35,0,13.504-5.031,14.965-12.234l1.258-6.206c2.567-12.665,12.411-22.508,25.075-25.075    l6.205-1.258c7.203-1.461,12.234-7.614,12.234-14.965C466.454,238.526,461.424,232.373,454.22,230.912z M451.246,245.926    c-0.014,0.003-0.029,0.006-0.047,0.01l-6.205,1.258c-18.666,3.785-33.174,18.291-36.958,36.958l-1.258,6.206    c-0.003,0.017-0.007,0.032-0.01,0.047c-0.031,0.003-0.067,0.003-0.099,0c-0.003-0.014-0.007-0.029-0.01-0.047l-1.258-6.205    c-3.783-18.667-18.29-33.174-36.957-36.959l-6.206-1.258c-0.017-0.003-0.032-0.007-0.047-0.01c-0.003-0.032-0.003-0.068,0-0.099    c0.014-0.003,0.029-0.006,0.047-0.01l6.206-1.258c18.667-3.785,33.174-18.292,36.957-36.957l1.258-6.206    c0.003-0.017,0.007-0.032,0.01-0.047c0.031-0.003,0.067-0.003,0.099,0c0.003,0.014,0.007,0.029,0.01,0.047l1.258,6.205    c3.785,18.667,18.292,33.174,36.957,36.958l6.206,1.258c0.017,0.003,0.032,0.007,0.047,0.01    C451.249,245.86,451.249,245.894,451.246,245.926z" data-original="#000000" class="active-path" data-old_color="#000000" fill="#FFFFFF"/>
	</g>
</g></g> </svg>
