<?xml version="1.0"?>
<svg xmlns="http://www.w3.org/2000/svg" xmlns:xlink="http://www.w3.org/1999/xlink" version="1.1" id="Capa_1" x="0px" y="0px" viewBox="0 0 368 368" style="enable-background:new 0 0 368 368;" xml:space="preserve" width="512px" height="512px" class=""><g><g>
	<g>
		<path d="M168,120l1.568-7.84C168.832,112.008,96,96.416,96,8c0-4.416-3.576-8-8-8s-8,3.584-8,8    C80,96.016,9.432,111.536,6.424,112.16L8,120l-1.568,7.84C7.168,127.992,80,143.584,80,232c0,4.416,3.576,8,8,8s8-3.584,8-8    c0-88.016,70.568-103.536,73.576-104.152L168,120z M122.992,133.76c-12.464,9.976-26.456,25.648-34.992,49.28    c-12.848-35.44-38.528-53.88-57.016-62.952c6.8-3.288,14.456-7.784,22.024-13.848C65.472,96.264,79.464,80.6,88,56.96    c12.848,35.44,38.528,53.88,57.016,62.96C138.216,123.208,130.56,127.704,122.992,133.76z" data-original="#000000" class="active-path" data-old_color="#000000" fill="#FFFFFF"/>
	</g>
</g><g>
	<g>
		<path d="M360,248l1.568-7.84C360.832,240.008,288,224.416,288,136c0-4.416-3.576-8-8-8s-8,3.584-8,8    c0,88.016-70.568,103.536-73.576,104.16L200,248l-1.568,7.84C199.168,255.992,272,271.584,272,360c0,4.416,3.576,8,8,8    s8-3.584,8-8c0-88.016,70.568-103.536,73.576-104.152L360,248z M314.992,261.76c-12.464,9.976-26.456,25.648-34.992,49.28    c-12.848-35.44-38.528-53.88-57.016-62.952c6.8-3.288,14.456-7.784,22.024-13.848c12.464-9.976,26.456-25.64,34.992-49.28    c12.848,35.44,38.528,53.88,57.016,62.96C330.216,251.208,322.56,255.704,314.992,261.76z" data-original="#000000" class="active-path" data-old_color="#000000" fill="#FFFFFF"/>
	</g>
</g></g> </svg>
